<?xml version="1.0" encoding="utf-8" standalone="no"?>
<!DOCTYPE svg PUBLIC "-//W3C//DTD SVG 1.1//EN"
  "http://www.w3.org/Graphics/SVG/1.1/DTD/svg11.dtd">
<svg xmlns:xlink="http://www.w3.org/1999/xlink" width="1008pt" height="468pt" viewBox="0 0 1008 468" xmlns="http://www.w3.org/2000/svg" version="1.1">
 <metadata>
  <rdf:RDF xmlns:dc="http://purl.org/dc/elements/1.1/" xmlns:cc="http://creativecommons.org/ns#" xmlns:rdf="http://www.w3.org/1999/02/22-rdf-syntax-ns#">
   <cc:Work>
    <dc:type rdf:resource="http://purl.org/dc/dcmitype/StillImage"/>
    <dc:date>2026-03-02T08:12:44.415660</dc:date>
    <dc:format>image/svg+xml</dc:format>
    <dc:creator>
     <cc:Agent>
      <dc:title>Matplotlib v3.10.8, https://matplotlib.org/</dc:title>
     </cc:Agent>
    </dc:creator>
   </cc:Work>
  </rdf:RDF>
 </metadata>
 <defs>
  <style type="text/css">*{stroke-linejoin: round; stroke-linecap: butt}</style>
 </defs>
 <g id="figure_1">
  <g id="patch_1">
   <path d="M 0 468 
L 1008 468 
L 1008 0 
L 0 0 
z
" style="fill: #ffffff"/>
  </g>
  <g id="axes_1">
   <g id="patch_2">
    <path d="M 89.712 183.5136 
L 267.264 183.5136 
Q 286.992 183.5136 286.992 175.464 
L 286.992 103.0176 
Q 286.992 94.968 267.264 94.968 
L 89.712 94.968 
Q 69.984 94.968 69.984 103.0176 
L 69.984 175.464 
Q 69.984 183.5136 89.712 183.5136 
z
" clip-path="url(#p0ee8718135)" style="fill: #dbeafe; stroke: #1f2937; stroke-width: 1.8; stroke-linejoin: miter"/>
   </g>
   <g id="patch_3">
    <path d="M 316.584 183.5136 
L 494.136 183.5136 
Q 513.864 183.5136 513.864 175.464 
L 513.864 103.0176 
Q 513.864 94.968 494.136 94.968 
L 316.584 94.968 
Q 296.856 94.968 296.856 103.0176 
L 296.856 175.464 
Q 296.856 183.5136 316.584 183.5136 
z
" clip-path="url(#p0ee8718135)" style="fill: #dbeafe; stroke: #1f2937; stroke-width: 1.8; stroke-linejoin: miter"/>
   </g>
   <g id="patch_4">
    <path d="M 543.456 183.5136 
L 721.008 183.5136 
Q 740.736 183.5136 740.736 175.464 
L 740.736 103.0176 
Q 740.736 94.968 721.008 94.968 
L 543.456 94.968 
Q 523.728 94.968 523.728 103.0176 
L 523.728 175.464 
Q 523.728 183.5136 543.456 183.5136 
z
" clip-path="url(#p0ee8718135)" style="fill: #e0f2fe; stroke: #1f2937; stroke-width: 1.8; stroke-linejoin: miter"/>
   </g>
   <g id="patch_5">
    <path d="M 770.328 183.5136 
L 947.88 183.5136 
Q 967.608 183.5136 967.608 175.464 
L 967.608 103.0176 
Q 967.608 94.968 947.88 94.968 
L 770.328 94.968 
Q 750.6 94.968 750.6 103.0176 
L 750.6 175.464 
Q 750.6 183.5136 770.328 183.5136 
z
" clip-path="url(#p0ee8718135)" style="fill: #dcfce7; stroke: #1f2937; stroke-width: 1.8; stroke-linejoin: miter"/>
   </g>
   <g id="patch_6">
    <path d="M 543.456 312.3072 
L 721.008 312.3072 
Q 740.736 312.3072 740.736 304.2576 
L 740.736 231.8112 
Q 740.736 223.7616 721.008 223.7616 
L 543.456 223.7616 
Q 523.728 223.7616 523.728 231.8112 
L 523.728 304.2576 
Q 523.728 312.3072 543.456 312.3072 
z
" clip-path="url(#p0ee8718135)" style="fill: #ffedd5; stroke: #1f2937; stroke-width: 1.8; stroke-linejoin: miter"/>
   </g>
   <g id="patch_7">
    <path d="M 770.328 312.3072 
L 947.88 312.3072 
Q 967.608 312.3072 967.608 304.2576 
L 967.608 231.8112 
Q 967.608 223.7616 947.88 223.7616 
L 770.328 223.7616 
Q 750.6 223.7616 750.6 231.8112 
L 750.6 304.2576 
Q 750.6 312.3072 770.328 312.3072 
z
" clip-path="url(#p0ee8718135)" style="fill: #fef3c7; stroke: #1f2937; stroke-width: 1.8; stroke-linejoin: miter"/>
   </g>
   <g id="patch_8">
    <path d="M 770.328 433.0512 
L 947.88 433.0512 
Q 967.608 433.0512 967.608 425.0016 
L 967.608 352.5552 
Q 967.608 344.5056 947.88 344.5056 
L 770.328 344.5056 
Q 750.6 344.5056 750.6 352.5552 
L 750.6 425.0016 
Q 750.6 433.0512 770.328 433.0512 
z
" clip-path="url(#p0ee8718135)" style="fill: #f3e8ff; stroke: #1f2937; stroke-width: 1.8; stroke-linejoin: miter"/>
   </g>
   <g id="patch_9">
    <path d="M 269.265819 139.2408 
Q 291.924192 139.2408 312.793711 139.2408 
" clip-path="url(#p0ee8718135)" style="fill: none; stroke: #111827; stroke-width: 1.6; stroke-linecap: round"/>
    <path d="M 307.193711 136.4408 
L 312.793711 139.2408 
L 307.193711 142.0408 
z
" clip-path="url(#p0ee8718135)" style="fill: #111827; stroke: #111827; stroke-width: 1.6; stroke-linecap: round"/>
   </g>
   <g id="patch_10">
    <path d="M 496.137819 139.2408 
Q 518.796192 139.2408 539.665711 139.2408 
" clip-path="url(#p0ee8718135)" style="fill: none; stroke: #111827; stroke-width: 1.6; stroke-linecap: round"/>
    <path d="M 534.065711 136.4408 
L 539.665711 139.2408 
L 534.065711 142.0408 
z
" clip-path="url(#p0ee8718135)" style="fill: #111827; stroke: #111827; stroke-width: 1.6; stroke-linecap: round"/>
   </g>
   <g id="patch_11">
    <path d="M 723.009819 139.2408 
Q 745.668192 139.2408 766.537711 139.2408 
" clip-path="url(#p0ee8718135)" style="fill: none; stroke: #111827; stroke-width: 1.6; stroke-linecap: round"/>
    <path d="M 760.937711 136.4408 
L 766.537711 139.2408 
L 760.937711 142.0408 
z
" clip-path="url(#p0ee8718135)" style="fill: #111827; stroke: #111827; stroke-width: 1.6; stroke-linecap: round"/>
   </g>
   <g id="patch_12">
    <path d="M 632.232 177.462152 
Q 632.232 203.636539 632.232 228.022072 
" clip-path="url(#p0ee8718135)" style="fill: none; stroke: #111827; stroke-width: 1.6; stroke-linecap: round"/>
    <path d="M 635.032 222.422072 
L 632.232 228.022072 
L 629.432 222.422072 
z
" clip-path="url(#p0ee8718135)" style="fill: #111827; stroke: #111827; stroke-width: 1.6; stroke-linecap: round"/>
   </g>
   <g id="patch_13">
    <path d="M 859.104 177.462152 
Q 859.104 203.636539 859.104 228.022072 
" clip-path="url(#p0ee8718135)" style="fill: none; stroke: #111827; stroke-width: 1.6; stroke-linecap: round"/>
    <path d="M 861.904 222.422072 
L 859.104 228.022072 
L 856.304 222.422072 
z
" clip-path="url(#p0ee8718135)" style="fill: #111827; stroke: #111827; stroke-width: 1.6; stroke-linecap: round"/>
   </g>
   <g id="patch_14">
    <path d="M 723.009819 268.0344 
Q 745.668192 268.0344 766.537711 268.0344 
" clip-path="url(#p0ee8718135)" style="fill: none; stroke: #111827; stroke-width: 1.6; stroke-linecap: round"/>
    <path d="M 760.937711 265.2344 
L 766.537711 268.0344 
L 760.937711 270.8344 
z
" clip-path="url(#p0ee8718135)" style="fill: #111827; stroke: #111827; stroke-width: 1.6; stroke-linecap: round"/>
   </g>
   <g id="patch_15">
    <path d="M 859.104 306.259191 
Q 859.104 328.408316 859.104 348.768587 
" clip-path="url(#p0ee8718135)" style="fill: none; stroke: #111827; stroke-width: 1.6; stroke-linecap: round"/>
    <path d="M 861.904 343.168587 
L 859.104 348.768587 
L 856.304 343.168587 
z
" clip-path="url(#p0ee8718135)" style="fill: #111827; stroke: #111827; stroke-width: 1.6; stroke-linecap: round"/>
   </g>
   <g id="text_1">
    <!-- HF + synthetic -->
    <g transform="translate(141.447375 136.401269) scale(0.1 -0.1)">
     <defs>
      <path id="DejaVuSans-48" d="M 628 4666 
L 1259 4666 
L 1259 2753 
L 3553 2753 
L 3553 4666 
L 4184 4666 
L 4184 0 
L 3553 0 
L 3553 2222 
L 1259 2222 
L 1259 0 
L 628 0 
L 628 4666 
z
" transform="scale(0.015625)"/>
      <path id="DejaVuSans-46" d="M 628 4666 
L 3309 4666 
L 3309 4134 
L 1259 4134 
L 1259 2759 
L 3109 2759 
L 3109 2228 
L 1259 2228 
L 1259 0 
L 628 0 
L 628 4666 
z
" transform="scale(0.015625)"/>
      <path id="DejaVuSans-20" transform="scale(0.015625)"/>
      <path id="DejaVuSans-2b" d="M 2944 4013 
L 2944 2272 
L 4684 2272 
L 4684 1741 
L 2944 1741 
L 2944 0 
L 2419 0 
L 2419 1741 
L 678 1741 
L 678 2272 
L 2419 2272 
L 2419 4013 
L 2944 4013 
z
" transform="scale(0.015625)"/>
      <path id="DejaVuSans-73" d="M 2834 3397 
L 2834 2853 
Q 2591 2978 2328 3040 
Q 2066 3103 1784 3103 
Q 1356 3103 1142 2972 
Q 928 2841 928 2578 
Q 928 2378 1081 2264 
Q 1234 2150 1697 2047 
L 1894 2003 
Q 2506 1872 2764 1633 
Q 3022 1394 3022 966 
Q 3022 478 2636 193 
Q 2250 -91 1575 -91 
Q 1294 -91 989 -36 
Q 684 19 347 128 
L 347 722 
Q 666 556 975 473 
Q 1284 391 1588 391 
Q 1994 391 2212 530 
Q 2431 669 2431 922 
Q 2431 1156 2273 1281 
Q 2116 1406 1581 1522 
L 1381 1569 
Q 847 1681 609 1914 
Q 372 2147 372 2553 
Q 372 3047 722 3315 
Q 1072 3584 1716 3584 
Q 2034 3584 2315 3537 
Q 2597 3491 2834 3397 
z
" transform="scale(0.015625)"/>
      <path id="DejaVuSans-79" d="M 2059 -325 
Q 1816 -950 1584 -1140 
Q 1353 -1331 966 -1331 
L 506 -1331 
L 506 -850 
L 844 -850 
Q 1081 -850 1212 -737 
Q 1344 -625 1503 -206 
L 1606 56 
L 191 3500 
L 800 3500 
L 1894 763 
L 2988 3500 
L 3597 3500 
L 2059 -325 
z
" transform="scale(0.015625)"/>
      <path id="DejaVuSans-6e" d="M 3513 2113 
L 3513 0 
L 2938 0 
L 2938 2094 
Q 2938 2591 2744 2837 
Q 2550 3084 2163 3084 
Q 1697 3084 1428 2787 
Q 1159 2491 1159 1978 
L 1159 0 
L 581 0 
L 581 3500 
L 1159 3500 
L 1159 2956 
Q 1366 3272 1645 3428 
Q 1925 3584 2291 3584 
Q 2894 3584 3203 3211 
Q 3513 2838 3513 2113 
z
" transform="scale(0.015625)"/>
      <path id="DejaVuSans-74" d="M 1172 4494 
L 1172 3500 
L 2356 3500 
L 2356 3053 
L 1172 3053 
L 1172 1153 
Q 1172 725 1289 603 
Q 1406 481 1766 481 
L 2356 481 
L 2356 0 
L 1766 0 
Q 1100 0 847 248 
Q 594 497 594 1153 
L 594 3053 
L 172 3053 
L 172 3500 
L 594 3500 
L 594 4494 
L 1172 4494 
z
" transform="scale(0.015625)"/>
      <path id="DejaVuSans-68" d="M 3513 2113 
L 3513 0 
L 2938 0 
L 2938 2094 
Q 2938 2591 2744 2837 
Q 2550 3084 2163 3084 
Q 1697 3084 1428 2787 
Q 1159 2491 1159 1978 
L 1159 0 
L 581 0 
L 581 4863 
L 1159 4863 
L 1159 2956 
Q 1366 3272 1645 3428 
Q 1925 3584 2291 3584 
Q 2894 3584 3203 3211 
Q 3513 2838 3513 2113 
z
" transform="scale(0.015625)"/>
      <path id="DejaVuSans-65" d="M 3597 1894 
L 3597 1613 
L 953 1613 
Q 991 1019 1311 708 
Q 1631 397 2203 397 
Q 2534 397 2845 478 
Q 3156 559 3463 722 
L 3463 178 
Q 3153 47 2828 -22 
Q 2503 -91 2169 -91 
Q 1331 -91 842 396 
Q 353 884 353 1716 
Q 353 2575 817 3079 
Q 1281 3584 2069 3584 
Q 2775 3584 3186 3129 
Q 3597 2675 3597 1894 
z
M 3022 2063 
Q 3016 2534 2758 2815 
Q 2500 3097 2075 3097 
Q 1594 3097 1305 2825 
Q 1016 2553 972 2059 
L 3022 2063 
z
" transform="scale(0.015625)"/>
      <path id="DejaVuSans-69" d="M 603 3500 
L 1178 3500 
L 1178 0 
L 603 0 
L 603 3500 
z
M 603 4863 
L 1178 4863 
L 1178 4134 
L 603 4134 
L 603 4863 
z
" transform="scale(0.015625)"/>
      <path id="DejaVuSans-63" d="M 3122 3366 
L 3122 2828 
Q 2878 2963 2633 3030 
Q 2388 3097 2138 3097 
Q 1578 3097 1268 2742 
Q 959 2388 959 1747 
Q 959 1106 1268 751 
Q 1578 397 2138 397 
Q 2388 397 2633 464 
Q 2878 531 3122 666 
L 3122 134 
Q 2881 22 2623 -34 
Q 2366 -91 2075 -91 
Q 1284 -91 818 406 
Q 353 903 353 1747 
Q 353 2603 823 3093 
Q 1294 3584 2113 3584 
Q 2378 3584 2631 3529 
Q 2884 3475 3122 3366 
z
" transform="scale(0.015625)"/>
     </defs>
     <use xlink:href="#DejaVuSans-48"/>
     <use xlink:href="#DejaVuSans-46" transform="translate(75.195312 0)"/>
     <use xlink:href="#DejaVuSans-20" transform="translate(132.714844 0)"/>
     <use xlink:href="#DejaVuSans-2b" transform="translate(164.501953 0)"/>
     <use xlink:href="#DejaVuSans-20" transform="translate(248.291016 0)"/>
     <use xlink:href="#DejaVuSans-73" transform="translate(280.078125 0)"/>
     <use xlink:href="#DejaVuSans-79" transform="translate(332.177734 0)"/>
     <use xlink:href="#DejaVuSans-6e" transform="translate(391.357422 0)"/>
     <use xlink:href="#DejaVuSans-74" transform="translate(454.736328 0)"/>
     <use xlink:href="#DejaVuSans-68" transform="translate(493.945312 0)"/>
     <use xlink:href="#DejaVuSans-65" transform="translate(557.324219 0)"/>
     <use xlink:href="#DejaVuSans-74" transform="translate(618.847656 0)"/>
     <use xlink:href="#DejaVuSans-69" transform="translate(658.056641 0)"/>
     <use xlink:href="#DejaVuSans-63" transform="translate(685.839844 0)"/>
    </g>
    <!-- benign data -->
    <g transform="translate(148.484875 147.599081) scale(0.1 -0.1)">
     <defs>
      <path id="DejaVuSans-62" d="M 3116 1747 
Q 3116 2381 2855 2742 
Q 2594 3103 2138 3103 
Q 1681 3103 1420 2742 
Q 1159 2381 1159 1747 
Q 1159 1113 1420 752 
Q 1681 391 2138 391 
Q 2594 391 2855 752 
Q 3116 1113 3116 1747 
z
M 1159 2969 
Q 1341 3281 1617 3432 
Q 1894 3584 2278 3584 
Q 2916 3584 3314 3078 
Q 3713 2572 3713 1747 
Q 3713 922 3314 415 
Q 2916 -91 2278 -91 
Q 1894 -91 1617 61 
Q 1341 213 1159 525 
L 1159 0 
L 581 0 
L 581 4863 
L 1159 4863 
L 1159 2969 
z
" transform="scale(0.015625)"/>
      <path id="DejaVuSans-67" d="M 2906 1791 
Q 2906 2416 2648 2759 
Q 2391 3103 1925 3103 
Q 1463 3103 1205 2759 
Q 947 2416 947 1791 
Q 947 1169 1205 825 
Q 1463 481 1925 481 
Q 2391 481 2648 825 
Q 2906 1169 2906 1791 
z
M 3481 434 
Q 3481 -459 3084 -895 
Q 2688 -1331 1869 -1331 
Q 1566 -1331 1297 -1286 
Q 1028 -1241 775 -1147 
L 775 -588 
Q 1028 -725 1275 -790 
Q 1522 -856 1778 -856 
Q 2344 -856 2625 -561 
Q 2906 -266 2906 331 
L 2906 616 
Q 2728 306 2450 153 
Q 2172 0 1784 0 
Q 1141 0 747 490 
Q 353 981 353 1791 
Q 353 2603 747 3093 
Q 1141 3584 1784 3584 
Q 2172 3584 2450 3431 
Q 2728 3278 2906 2969 
L 2906 3500 
L 3481 3500 
L 3481 434 
z
" transform="scale(0.015625)"/>
      <path id="DejaVuSans-64" d="M 2906 2969 
L 2906 4863 
L 3481 4863 
L 3481 0 
L 2906 0 
L 2906 525 
Q 2725 213 2448 61 
Q 2172 -91 1784 -91 
Q 1150 -91 751 415 
Q 353 922 353 1747 
Q 353 2572 751 3078 
Q 1150 3584 1784 3584 
Q 2172 3584 2448 3432 
Q 2725 3281 2906 2969 
z
M 947 1747 
Q 947 1113 1208 752 
Q 1469 391 1925 391 
Q 2381 391 2643 752 
Q 2906 1113 2906 1747 
Q 2906 2381 2643 2742 
Q 2381 3103 1925 3103 
Q 1469 3103 1208 2742 
Q 947 2381 947 1747 
z
" transform="scale(0.015625)"/>
      <path id="DejaVuSans-61" d="M 2194 1759 
Q 1497 1759 1228 1600 
Q 959 1441 959 1056 
Q 959 750 1161 570 
Q 1363 391 1709 391 
Q 2188 391 2477 730 
Q 2766 1069 2766 1631 
L 2766 1759 
L 2194 1759 
z
M 3341 1997 
L 3341 0 
L 2766 0 
L 2766 531 
Q 2569 213 2275 61 
Q 1981 -91 1556 -91 
Q 1019 -91 701 211 
Q 384 513 384 1019 
Q 384 1609 779 1909 
Q 1175 2209 1959 2209 
L 2766 2209 
L 2766 2266 
Q 2766 2663 2505 2880 
Q 2244 3097 1772 3097 
Q 1472 3097 1187 3025 
Q 903 2953 641 2809 
L 641 3341 
Q 956 3463 1253 3523 
Q 1550 3584 1831 3584 
Q 2591 3584 2966 3190 
Q 3341 2797 3341 1997 
z
" transform="scale(0.015625)"/>
     </defs>
     <use xlink:href="#DejaVuSans-62"/>
     <use xlink:href="#DejaVuSans-65" transform="translate(63.476562 0)"/>
     <use xlink:href="#DejaVuSans-6e" transform="translate(125 0)"/>
     <use xlink:href="#DejaVuSans-69" transform="translate(188.378906 0)"/>
     <use xlink:href="#DejaVuSans-67" transform="translate(216.162109 0)"/>
     <use xlink:href="#DejaVuSans-6e" transform="translate(279.638672 0)"/>
     <use xlink:href="#DejaVuSans-20" transform="translate(343.017578 0)"/>
     <use xlink:href="#DejaVuSans-64" transform="translate(374.804688 0)"/>
     <use xlink:href="#DejaVuSans-61" transform="translate(438.28125 0)"/>
     <use xlink:href="#DejaVuSans-74" transform="translate(499.560547 0)"/>
     <use xlink:href="#DejaVuSans-61" transform="translate(538.769531 0)"/>
    </g>
   </g>
   <g id="text_2">
    <!-- Preprocess + -->
    <g transform="translate(372.4225 136.401269) scale(0.1 -0.1)">
     <defs>
      <path id="DejaVuSans-50" d="M 1259 4147 
L 1259 2394 
L 2053 2394 
Q 2494 2394 2734 2622 
Q 2975 2850 2975 3272 
Q 2975 3691 2734 3919 
Q 2494 4147 2053 4147 
L 1259 4147 
z
M 628 4666 
L 2053 4666 
Q 2838 4666 3239 4311 
Q 3641 3956 3641 3272 
Q 3641 2581 3239 2228 
Q 2838 1875 2053 1875 
L 1259 1875 
L 1259 0 
L 628 0 
L 628 4666 
z
" transform="scale(0.015625)"/>
      <path id="DejaVuSans-72" d="M 2631 2963 
Q 2534 3019 2420 3045 
Q 2306 3072 2169 3072 
Q 1681 3072 1420 2755 
Q 1159 2438 1159 1844 
L 1159 0 
L 581 0 
L 581 3500 
L 1159 3500 
L 1159 2956 
Q 1341 3275 1631 3429 
Q 1922 3584 2338 3584 
Q 2397 3584 2469 3576 
Q 2541 3569 2628 3553 
L 2631 2963 
z
" transform="scale(0.015625)"/>
      <path id="DejaVuSans-70" d="M 1159 525 
L 1159 -1331 
L 581 -1331 
L 581 3500 
L 1159 3500 
L 1159 2969 
Q 1341 3281 1617 3432 
Q 1894 3584 2278 3584 
Q 2916 3584 3314 3078 
Q 3713 2572 3713 1747 
Q 3713 922 3314 415 
Q 2916 -91 2278 -91 
Q 1894 -91 1617 61 
Q 1341 213 1159 525 
z
M 3116 1747 
Q 3116 2381 2855 2742 
Q 2594 3103 2138 3103 
Q 1681 3103 1420 2742 
Q 1159 2381 1159 1747 
Q 1159 1113 1420 752 
Q 1681 391 2138 391 
Q 2594 391 2855 752 
Q 3116 1113 3116 1747 
z
" transform="scale(0.015625)"/>
      <path id="DejaVuSans-6f" d="M 1959 3097 
Q 1497 3097 1228 2736 
Q 959 2375 959 1747 
Q 959 1119 1226 758 
Q 1494 397 1959 397 
Q 2419 397 2687 759 
Q 2956 1122 2956 1747 
Q 2956 2369 2687 2733 
Q 2419 3097 1959 3097 
z
M 1959 3584 
Q 2709 3584 3137 3096 
Q 3566 2609 3566 1747 
Q 3566 888 3137 398 
Q 2709 -91 1959 -91 
Q 1206 -91 779 398 
Q 353 888 353 1747 
Q 353 2609 779 3096 
Q 1206 3584 1959 3584 
z
" transform="scale(0.015625)"/>
     </defs>
     <use xlink:href="#DejaVuSans-50"/>
     <use xlink:href="#DejaVuSans-72" transform="translate(58.552734 0)"/>
     <use xlink:href="#DejaVuSans-65" transform="translate(97.416016 0)"/>
     <use xlink:href="#DejaVuSans-70" transform="translate(158.939453 0)"/>
     <use xlink:href="#DejaVuSans-72" transform="translate(222.416016 0)"/>
     <use xlink:href="#DejaVuSans-6f" transform="translate(261.279297 0)"/>
     <use xlink:href="#DejaVuSans-63" transform="translate(322.460938 0)"/>
     <use xlink:href="#DejaVuSans-65" transform="translate(377.441406 0)"/>
     <use xlink:href="#DejaVuSans-73" transform="translate(438.964844 0)"/>
     <use xlink:href="#DejaVuSans-73" transform="translate(491.064453 0)"/>
     <use xlink:href="#DejaVuSans-20" transform="translate(543.164062 0)"/>
     <use xlink:href="#DejaVuSans-2b" transform="translate(574.951172 0)"/>
    </g>
    <!-- label hierarchy -->
    <g transform="translate(368.10375 147.599081) scale(0.1 -0.1)">
     <defs>
      <path id="DejaVuSans-6c" d="M 603 4863 
L 1178 4863 
L 1178 0 
L 603 0 
L 603 4863 
z
" transform="scale(0.015625)"/>
     </defs>
     <use xlink:href="#DejaVuSans-6c"/>
     <use xlink:href="#DejaVuSans-61" transform="translate(27.783203 0)"/>
     <use xlink:href="#DejaVuSans-62" transform="translate(89.0625 0)"/>
     <use xlink:href="#DejaVuSans-65" transform="translate(152.539062 0)"/>
     <use xlink:href="#DejaVuSans-6c" transform="translate(214.0625 0)"/>
     <use xlink:href="#DejaVuSans-20" transform="translate(241.845703 0)"/>
     <use xlink:href="#DejaVuSans-68" transform="translate(273.632812 0)"/>
     <use xlink:href="#DejaVuSans-69" transform="translate(337.011719 0)"/>
     <use xlink:href="#DejaVuSans-65" transform="translate(364.794922 0)"/>
     <use xlink:href="#DejaVuSans-72" transform="translate(426.318359 0)"/>
     <use xlink:href="#DejaVuSans-61" transform="translate(467.431641 0)"/>
     <use xlink:href="#DejaVuSans-72" transform="translate(528.710938 0)"/>
     <use xlink:href="#DejaVuSans-63" transform="translate(567.574219 0)"/>
     <use xlink:href="#DejaVuSans-68" transform="translate(622.554688 0)"/>
     <use xlink:href="#DejaVuSans-79" transform="translate(685.933594 0)"/>
    </g>
   </g>
   <g id="text_3">
    <!-- Grouped splits -->
    <g transform="translate(596.05075 136.401269) scale(0.1 -0.1)">
     <defs>
      <path id="DejaVuSans-47" d="M 3809 666 
L 3809 1919 
L 2778 1919 
L 2778 2438 
L 4434 2438 
L 4434 434 
Q 4069 175 3628 42 
Q 3188 -91 2688 -91 
Q 1594 -91 976 548 
Q 359 1188 359 2328 
Q 359 3472 976 4111 
Q 1594 4750 2688 4750 
Q 3144 4750 3555 4637 
Q 3966 4525 4313 4306 
L 4313 3634 
Q 3963 3931 3569 4081 
Q 3175 4231 2741 4231 
Q 1884 4231 1454 3753 
Q 1025 3275 1025 2328 
Q 1025 1384 1454 906 
Q 1884 428 2741 428 
Q 3075 428 3337 486 
Q 3600 544 3809 666 
z
" transform="scale(0.015625)"/>
      <path id="DejaVuSans-75" d="M 544 1381 
L 544 3500 
L 1119 3500 
L 1119 1403 
Q 1119 906 1312 657 
Q 1506 409 1894 409 
Q 2359 409 2629 706 
Q 2900 1003 2900 1516 
L 2900 3500 
L 3475 3500 
L 3475 0 
L 2900 0 
L 2900 538 
Q 2691 219 2414 64 
Q 2138 -91 1772 -91 
Q 1169 -91 856 284 
Q 544 659 544 1381 
z
M 1991 3584 
L 1991 3584 
z
" transform="scale(0.015625)"/>
     </defs>
     <use xlink:href="#DejaVuSans-47"/>
     <use xlink:href="#DejaVuSans-72" transform="translate(77.490234 0)"/>
     <use xlink:href="#DejaVuSans-6f" transform="translate(116.353516 0)"/>
     <use xlink:href="#DejaVuSans-75" transform="translate(177.535156 0)"/>
     <use xlink:href="#DejaVuSans-70" transform="translate(240.914062 0)"/>
     <use xlink:href="#DejaVuSans-65" transform="translate(304.390625 0)"/>
     <use xlink:href="#DejaVuSans-64" transform="translate(365.914062 0)"/>
     <use xlink:href="#DejaVuSans-20" transform="translate(429.390625 0)"/>
     <use xlink:href="#DejaVuSans-73" transform="translate(461.177734 0)"/>
     <use xlink:href="#DejaVuSans-70" transform="translate(513.277344 0)"/>
     <use xlink:href="#DejaVuSans-6c" transform="translate(576.753906 0)"/>
     <use xlink:href="#DejaVuSans-69" transform="translate(604.537109 0)"/>
     <use xlink:href="#DejaVuSans-74" transform="translate(632.320312 0)"/>
     <use xlink:href="#DejaVuSans-73" transform="translate(671.529297 0)"/>
    </g>
    <!-- (+ held-out attacks) -->
    <g transform="translate(581.770281 147.599081) scale(0.1 -0.1)">
     <defs>
      <path id="DejaVuSans-28" d="M 1984 4856 
Q 1566 4138 1362 3434 
Q 1159 2731 1159 2009 
Q 1159 1288 1364 580 
Q 1569 -128 1984 -844 
L 1484 -844 
Q 1016 -109 783 600 
Q 550 1309 550 2009 
Q 550 2706 781 3412 
Q 1013 4119 1484 4856 
L 1984 4856 
z
" transform="scale(0.015625)"/>
      <path id="DejaVuSans-2d" d="M 313 2009 
L 1997 2009 
L 1997 1497 
L 313 1497 
L 313 2009 
z
" transform="scale(0.015625)"/>
      <path id="DejaVuSans-6b" d="M 581 4863 
L 1159 4863 
L 1159 1991 
L 2875 3500 
L 3609 3500 
L 1753 1863 
L 3688 0 
L 2938 0 
L 1159 1709 
L 1159 0 
L 581 0 
L 581 4863 
z
" transform="scale(0.015625)"/>
      <path id="DejaVuSans-29" d="M 513 4856 
L 1013 4856 
Q 1481 4119 1714 3412 
Q 1947 2706 1947 2009 
Q 1947 1309 1714 600 
Q 1481 -109 1013 -844 
L 513 -844 
Q 928 -128 1133 580 
Q 1338 1288 1338 2009 
Q 1338 2731 1133 3434 
Q 928 4138 513 4856 
z
" transform="scale(0.015625)"/>
     </defs>
     <use xlink:href="#DejaVuSans-28"/>
     <use xlink:href="#DejaVuSans-2b" transform="translate(39.013672 0)"/>
     <use xlink:href="#DejaVuSans-20" transform="translate(122.802734 0)"/>
     <use xlink:href="#DejaVuSans-68" transform="translate(154.589844 0)"/>
     <use xlink:href="#DejaVuSans-65" transform="translate(217.96875 0)"/>
     <use xlink:href="#DejaVuSans-6c" transform="translate(279.492188 0)"/>
     <use xlink:href="#DejaVuSans-64" transform="translate(307.275391 0)"/>
     <use xlink:href="#DejaVuSans-2d" transform="translate(370.751953 0)"/>
     <use xlink:href="#DejaVuSans-6f" transform="translate(408.710938 0)"/>
     <use xlink:href="#DejaVuSans-75" transform="translate(469.892578 0)"/>
     <use xlink:href="#DejaVuSans-74" transform="translate(533.271484 0)"/>
     <use xlink:href="#DejaVuSans-20" transform="translate(572.480469 0)"/>
     <use xlink:href="#DejaVuSans-61" transform="translate(604.267578 0)"/>
     <use xlink:href="#DejaVuSans-74" transform="translate(665.546875 0)"/>
     <use xlink:href="#DejaVuSans-74" transform="translate(704.755859 0)"/>
     <use xlink:href="#DejaVuSans-61" transform="translate(743.964844 0)"/>
     <use xlink:href="#DejaVuSans-63" transform="translate(805.244141 0)"/>
     <use xlink:href="#DejaVuSans-6b" transform="translate(860.224609 0)"/>
     <use xlink:href="#DejaVuSans-73" transform="translate(918.134766 0)"/>
     <use xlink:href="#DejaVuSans-29" transform="translate(970.234375 0)"/>
    </g>
   </g>
   <g id="text_4">
    <!-- ML baseline -->
    <g transform="translate(829.471969 130.802362) scale(0.1 -0.1)">
     <defs>
      <path id="DejaVuSans-4d" d="M 628 4666 
L 1569 4666 
L 2759 1491 
L 3956 4666 
L 4897 4666 
L 4897 0 
L 4281 0 
L 4281 4097 
L 3078 897 
L 2444 897 
L 1241 4097 
L 1241 0 
L 628 0 
L 628 4666 
z
" transform="scale(0.015625)"/>
      <path id="DejaVuSans-4c" d="M 628 4666 
L 1259 4666 
L 1259 531 
L 3531 531 
L 3531 0 
L 628 0 
L 628 4666 
z
" transform="scale(0.015625)"/>
     </defs>
     <use xlink:href="#DejaVuSans-4d"/>
     <use xlink:href="#DejaVuSans-4c" transform="translate(86.279297 0)"/>
     <use xlink:href="#DejaVuSans-20" transform="translate(141.992188 0)"/>
     <use xlink:href="#DejaVuSans-62" transform="translate(173.779297 0)"/>
     <use xlink:href="#DejaVuSans-61" transform="translate(237.255859 0)"/>
     <use xlink:href="#DejaVuSans-73" transform="translate(298.535156 0)"/>
     <use xlink:href="#DejaVuSans-65" transform="translate(350.634766 0)"/>
     <use xlink:href="#DejaVuSans-6c" transform="translate(412.158203 0)"/>
     <use xlink:href="#DejaVuSans-69" transform="translate(439.941406 0)"/>
     <use xlink:href="#DejaVuSans-6e" transform="translate(467.724609 0)"/>
     <use xlink:href="#DejaVuSans-65" transform="translate(531.103516 0)"/>
    </g>
    <!-- (char n-grams + -->
    <g transform="translate(818.006344 142.000175) scale(0.1 -0.1)">
     <defs>
      <path id="DejaVuSans-6d" d="M 3328 2828 
Q 3544 3216 3844 3400 
Q 4144 3584 4550 3584 
Q 5097 3584 5394 3201 
Q 5691 2819 5691 2113 
L 5691 0 
L 5113 0 
L 5113 2094 
Q 5113 2597 4934 2840 
Q 4756 3084 4391 3084 
Q 3944 3084 3684 2787 
Q 3425 2491 3425 1978 
L 3425 0 
L 2847 0 
L 2847 2094 
Q 2847 2600 2669 2842 
Q 2491 3084 2119 3084 
Q 1678 3084 1418 2786 
Q 1159 2488 1159 1978 
L 1159 0 
L 581 0 
L 581 3500 
L 1159 3500 
L 1159 2956 
Q 1356 3278 1631 3431 
Q 1906 3584 2284 3584 
Q 2666 3584 2933 3390 
Q 3200 3197 3328 2828 
z
" transform="scale(0.015625)"/>
     </defs>
     <use xlink:href="#DejaVuSans-28"/>
     <use xlink:href="#DejaVuSans-63" transform="translate(39.013672 0)"/>
     <use xlink:href="#DejaVuSans-68" transform="translate(93.994141 0)"/>
     <use xlink:href="#DejaVuSans-61" transform="translate(157.373047 0)"/>
     <use xlink:href="#DejaVuSans-72" transform="translate(218.652344 0)"/>
     <use xlink:href="#DejaVuSans-20" transform="translate(259.765625 0)"/>
     <use xlink:href="#DejaVuSans-6e" transform="translate(291.552734 0)"/>
     <use xlink:href="#DejaVuSans-2d" transform="translate(354.931641 0)"/>
     <use xlink:href="#DejaVuSans-67" transform="translate(391.015625 0)"/>
     <use xlink:href="#DejaVuSans-72" transform="translate(454.492188 0)"/>
     <use xlink:href="#DejaVuSans-61" transform="translate(495.605469 0)"/>
     <use xlink:href="#DejaVuSans-6d" transform="translate(556.884766 0)"/>
     <use xlink:href="#DejaVuSans-73" transform="translate(654.296875 0)"/>
     <use xlink:href="#DejaVuSans-20" transform="translate(706.396484 0)"/>
     <use xlink:href="#DejaVuSans-2b" transform="translate(738.183594 0)"/>
    </g>
    <!-- unicode feats) -->
    <g transform="translate(823.312594 153.197987) scale(0.1 -0.1)">
     <defs>
      <path id="DejaVuSans-66" d="M 2375 4863 
L 2375 4384 
L 1825 4384 
Q 1516 4384 1395 4259 
Q 1275 4134 1275 3809 
L 1275 3500 
L 2222 3500 
L 2222 3053 
L 1275 3053 
L 1275 0 
L 697 0 
L 697 3053 
L 147 3053 
L 147 3500 
L 697 3500 
L 697 3744 
Q 697 4328 969 4595 
Q 1241 4863 1831 4863 
L 2375 4863 
z
" transform="scale(0.015625)"/>
     </defs>
     <use xlink:href="#DejaVuSans-75"/>
     <use xlink:href="#DejaVuSans-6e" transform="translate(63.378906 0)"/>
     <use xlink:href="#DejaVuSans-69" transform="translate(126.757812 0)"/>
     <use xlink:href="#DejaVuSans-63" transform="translate(154.541016 0)"/>
     <use xlink:href="#DejaVuSans-6f" transform="translate(209.521484 0)"/>
     <use xlink:href="#DejaVuSans-64" transform="translate(270.703125 0)"/>
     <use xlink:href="#DejaVuSans-65" transform="translate(334.179688 0)"/>
     <use xlink:href="#DejaVuSans-20" transform="translate(395.703125 0)"/>
     <use xlink:href="#DejaVuSans-66" transform="translate(427.490234 0)"/>
     <use xlink:href="#DejaVuSans-65" transform="translate(462.695312 0)"/>
     <use xlink:href="#DejaVuSans-61" transform="translate(524.21875 0)"/>
     <use xlink:href="#DejaVuSans-74" transform="translate(585.498047 0)"/>
     <use xlink:href="#DejaVuSans-73" transform="translate(624.707031 0)"/>
     <use xlink:href="#DejaVuSans-29" transform="translate(676.806641 0)"/>
    </g>
   </g>
   <g id="text_5">
    <!-- LLM classifier -->
    <g transform="translate(598.674969 265.194869) scale(0.1 -0.1)">
     <use xlink:href="#DejaVuSans-4c"/>
     <use xlink:href="#DejaVuSans-4c" transform="translate(55.712891 0)"/>
     <use xlink:href="#DejaVuSans-4d" transform="translate(111.425781 0)"/>
     <use xlink:href="#DejaVuSans-20" transform="translate(197.705078 0)"/>
     <use xlink:href="#DejaVuSans-63" transform="translate(229.492188 0)"/>
     <use xlink:href="#DejaVuSans-6c" transform="translate(284.472656 0)"/>
     <use xlink:href="#DejaVuSans-61" transform="translate(312.255859 0)"/>
     <use xlink:href="#DejaVuSans-73" transform="translate(373.535156 0)"/>
     <use xlink:href="#DejaVuSans-73" transform="translate(425.634766 0)"/>
     <use xlink:href="#DejaVuSans-69" transform="translate(477.734375 0)"/>
     <use xlink:href="#DejaVuSans-66" transform="translate(505.517578 0)"/>
     <use xlink:href="#DejaVuSans-69" transform="translate(540.722656 0)"/>
     <use xlink:href="#DejaVuSans-65" transform="translate(568.505859 0)"/>
     <use xlink:href="#DejaVuSans-72" transform="translate(630.029297 0)"/>
    </g>
    <!-- (+ judge) -->
    <g transform="translate(608.568719 276.392681) scale(0.1 -0.1)">
     <defs>
      <path id="DejaVuSans-6a" d="M 603 3500 
L 1178 3500 
L 1178 -63 
Q 1178 -731 923 -1031 
Q 669 -1331 103 -1331 
L -116 -1331 
L -116 -844 
L 38 -844 
Q 366 -844 484 -692 
Q 603 -541 603 -63 
L 603 3500 
z
M 603 4863 
L 1178 4863 
L 1178 4134 
L 603 4134 
L 603 4863 
z
" transform="scale(0.015625)"/>
     </defs>
     <use xlink:href="#DejaVuSans-28"/>
     <use xlink:href="#DejaVuSans-2b" transform="translate(39.013672 0)"/>
     <use xlink:href="#DejaVuSans-20" transform="translate(122.802734 0)"/>
     <use xlink:href="#DejaVuSans-6a" transform="translate(154.589844 0)"/>
     <use xlink:href="#DejaVuSans-75" transform="translate(182.373047 0)"/>
     <use xlink:href="#DejaVuSans-64" transform="translate(245.751953 0)"/>
     <use xlink:href="#DejaVuSans-67" transform="translate(309.228516 0)"/>
     <use xlink:href="#DejaVuSans-65" transform="translate(372.705078 0)"/>
     <use xlink:href="#DejaVuSans-29" transform="translate(434.228516 0)"/>
    </g>
   </g>
   <g id="text_6">
    <!-- Hybrid router -->
    <g transform="translate(825.739156 265.194869) scale(0.1 -0.1)">
     <use xlink:href="#DejaVuSans-48"/>
     <use xlink:href="#DejaVuSans-79" transform="translate(75.195312 0)"/>
     <use xlink:href="#DejaVuSans-62" transform="translate(134.375 0)"/>
     <use xlink:href="#DejaVuSans-72" transform="translate(197.851562 0)"/>
     <use xlink:href="#DejaVuSans-69" transform="translate(238.964844 0)"/>
     <use xlink:href="#DejaVuSans-64" transform="translate(266.748047 0)"/>
     <use xlink:href="#DejaVuSans-20" transform="translate(330.224609 0)"/>
     <use xlink:href="#DejaVuSans-72" transform="translate(362.011719 0)"/>
     <use xlink:href="#DejaVuSans-6f" transform="translate(400.875 0)"/>
     <use xlink:href="#DejaVuSans-75" transform="translate(462.056641 0)"/>
     <use xlink:href="#DejaVuSans-74" transform="translate(525.435547 0)"/>
     <use xlink:href="#DejaVuSans-65" transform="translate(564.644531 0)"/>
     <use xlink:href="#DejaVuSans-72" transform="translate(626.167969 0)"/>
    </g>
    <!-- ML threshold gate -->
    <g transform="translate(814.006344 276.392681) scale(0.1 -0.1)">
     <use xlink:href="#DejaVuSans-4d"/>
     <use xlink:href="#DejaVuSans-4c" transform="translate(86.279297 0)"/>
     <use xlink:href="#DejaVuSans-20" transform="translate(141.992188 0)"/>
     <use xlink:href="#DejaVuSans-74" transform="translate(173.779297 0)"/>
     <use xlink:href="#DejaVuSans-68" transform="translate(212.988281 0)"/>
     <use xlink:href="#DejaVuSans-72" transform="translate(276.367188 0)"/>
     <use xlink:href="#DejaVuSans-65" transform="translate(315.230469 0)"/>
     <use xlink:href="#DejaVuSans-73" transform="translate(376.753906 0)"/>
     <use xlink:href="#DejaVuSans-68" transform="translate(428.853516 0)"/>
     <use xlink:href="#DejaVuSans-6f" transform="translate(492.232422 0)"/>
     <use xlink:href="#DejaVuSans-6c" transform="translate(553.414062 0)"/>
     <use xlink:href="#DejaVuSans-64" transform="translate(581.197266 0)"/>
     <use xlink:href="#DejaVuSans-20" transform="translate(644.673828 0)"/>
     <use xlink:href="#DejaVuSans-67" transform="translate(676.460938 0)"/>
     <use xlink:href="#DejaVuSans-61" transform="translate(739.9375 0)"/>
     <use xlink:href="#DejaVuSans-74" transform="translate(801.216797 0)"/>
     <use xlink:href="#DejaVuSans-65" transform="translate(840.425781 0)"/>
    </g>
   </g>
   <g id="text_7">
    <!-- Eval + reports -->
    <g transform="translate(823.290719 385.938869) scale(0.1 -0.1)">
     <defs>
      <path id="DejaVuSans-45" d="M 628 4666 
L 3578 4666 
L 3578 4134 
L 1259 4134 
L 1259 2753 
L 3481 2753 
L 3481 2222 
L 1259 2222 
L 1259 531 
L 3634 531 
L 3634 0 
L 628 0 
L 628 4666 
z
" transform="scale(0.015625)"/>
      <path id="DejaVuSans-76" d="M 191 3500 
L 800 3500 
L 1894 563 
L 2988 3500 
L 3597 3500 
L 2284 0 
L 1503 0 
L 191 3500 
z
" transform="scale(0.015625)"/>
     </defs>
     <use xlink:href="#DejaVuSans-45"/>
     <use xlink:href="#DejaVuSans-76" transform="translate(63.183594 0)"/>
     <use xlink:href="#DejaVuSans-61" transform="translate(122.363281 0)"/>
     <use xlink:href="#DejaVuSans-6c" transform="translate(183.642578 0)"/>
     <use xlink:href="#DejaVuSans-20" transform="translate(211.425781 0)"/>
     <use xlink:href="#DejaVuSans-2b" transform="translate(243.212891 0)"/>
     <use xlink:href="#DejaVuSans-20" transform="translate(327.001953 0)"/>
     <use xlink:href="#DejaVuSans-72" transform="translate(358.789062 0)"/>
     <use xlink:href="#DejaVuSans-65" transform="translate(397.652344 0)"/>
     <use xlink:href="#DejaVuSans-70" transform="translate(459.175781 0)"/>
     <use xlink:href="#DejaVuSans-6f" transform="translate(522.652344 0)"/>
     <use xlink:href="#DejaVuSans-72" transform="translate(583.833984 0)"/>
     <use xlink:href="#DejaVuSans-74" transform="translate(624.947266 0)"/>
     <use xlink:href="#DejaVuSans-73" transform="translate(664.15625 0)"/>
    </g>
    <!-- (main + external) -->
    <g transform="translate(814.767281 397.136681) scale(0.1 -0.1)">
     <defs>
      <path id="DejaVuSans-78" d="M 3513 3500 
L 2247 1797 
L 3578 0 
L 2900 0 
L 1881 1375 
L 863 0 
L 184 0 
L 1544 1831 
L 300 3500 
L 978 3500 
L 1906 2253 
L 2834 3500 
L 3513 3500 
z
" transform="scale(0.015625)"/>
     </defs>
     <use xlink:href="#DejaVuSans-28"/>
     <use xlink:href="#DejaVuSans-6d" transform="translate(39.013672 0)"/>
     <use xlink:href="#DejaVuSans-61" transform="translate(136.425781 0)"/>
     <use xlink:href="#DejaVuSans-69" transform="translate(197.705078 0)"/>
     <use xlink:href="#DejaVuSans-6e" transform="translate(225.488281 0)"/>
     <use xlink:href="#DejaVuSans-20" transform="translate(288.867188 0)"/>
     <use xlink:href="#DejaVuSans-2b" transform="translate(320.654297 0)"/>
     <use xlink:href="#DejaVuSans-20" transform="translate(404.443359 0)"/>
     <use xlink:href="#DejaVuSans-65" transform="translate(436.230469 0)"/>
     <use xlink:href="#DejaVuSans-78" transform="translate(496.003906 0)"/>
     <use xlink:href="#DejaVuSans-74" transform="translate(555.183594 0)"/>
     <use xlink:href="#DejaVuSans-65" transform="translate(594.392578 0)"/>
     <use xlink:href="#DejaVuSans-72" transform="translate(655.916016 0)"/>
     <use xlink:href="#DejaVuSans-6e" transform="translate(695.279297 0)"/>
     <use xlink:href="#DejaVuSans-61" transform="translate(758.658203 0)"/>
     <use xlink:href="#DejaVuSans-6c" transform="translate(819.9375 0)"/>
     <use xlink:href="#DejaVuSans-29" transform="translate(847.720703 0)"/>
    </g>
   </g>
   <g id="text_8">
    <!-- LLM predictions -->
    <g transform="translate(596.985047 193.716281) scale(0.09 -0.09)">
     <use xlink:href="#DejaVuSans-4c"/>
     <use xlink:href="#DejaVuSans-4c" transform="translate(55.712891 0)"/>
     <use xlink:href="#DejaVuSans-4d" transform="translate(111.425781 0)"/>
     <use xlink:href="#DejaVuSans-20" transform="translate(197.705078 0)"/>
     <use xlink:href="#DejaVuSans-70" transform="translate(229.492188 0)"/>
     <use xlink:href="#DejaVuSans-72" transform="translate(292.96875 0)"/>
     <use xlink:href="#DejaVuSans-65" transform="translate(331.832031 0)"/>
     <use xlink:href="#DejaVuSans-64" transform="translate(393.355469 0)"/>
     <use xlink:href="#DejaVuSans-69" transform="translate(456.832031 0)"/>
     <use xlink:href="#DejaVuSans-63" transform="translate(484.615234 0)"/>
     <use xlink:href="#DejaVuSans-74" transform="translate(539.595703 0)"/>
     <use xlink:href="#DejaVuSans-69" transform="translate(578.804688 0)"/>
     <use xlink:href="#DejaVuSans-6f" transform="translate(606.587891 0)"/>
     <use xlink:href="#DejaVuSans-6e" transform="translate(667.769531 0)"/>
     <use xlink:href="#DejaVuSans-73" transform="translate(731.148438 0)"/>
    </g>
   </g>
   <g id="text_9">
    <!-- confident adv -&gt; ML -->
    <g transform="translate(813.595641 193.716281) scale(0.09 -0.09)">
     <defs>
      <path id="DejaVuSans-3e" d="M 678 3150 
L 678 3719 
L 4684 2266 
L 4684 1747 
L 678 294 
L 678 863 
L 3897 2003 
L 678 3150 
z
" transform="scale(0.015625)"/>
     </defs>
     <use xlink:href="#DejaVuSans-63"/>
     <use xlink:href="#DejaVuSans-6f" transform="translate(54.980469 0)"/>
     <use xlink:href="#DejaVuSans-6e" transform="translate(116.162109 0)"/>
     <use xlink:href="#DejaVuSans-66" transform="translate(179.541016 0)"/>
     <use xlink:href="#DejaVuSans-69" transform="translate(214.746094 0)"/>
     <use xlink:href="#DejaVuSans-64" transform="translate(242.529297 0)"/>
     <use xlink:href="#DejaVuSans-65" transform="translate(306.005859 0)"/>
     <use xlink:href="#DejaVuSans-6e" transform="translate(367.529297 0)"/>
     <use xlink:href="#DejaVuSans-74" transform="translate(430.908203 0)"/>
     <use xlink:href="#DejaVuSans-20" transform="translate(470.117188 0)"/>
     <use xlink:href="#DejaVuSans-61" transform="translate(501.904297 0)"/>
     <use xlink:href="#DejaVuSans-64" transform="translate(563.183594 0)"/>
     <use xlink:href="#DejaVuSans-76" transform="translate(626.660156 0)"/>
     <use xlink:href="#DejaVuSans-20" transform="translate(685.839844 0)"/>
     <use xlink:href="#DejaVuSans-2d" transform="translate(717.626953 0)"/>
     <use xlink:href="#DejaVuSans-3e" transform="translate(753.710938 0)"/>
     <use xlink:href="#DejaVuSans-20" transform="translate(837.5 0)"/>
     <use xlink:href="#DejaVuSans-4d" transform="translate(869.287109 0)"/>
     <use xlink:href="#DejaVuSans-4c" transform="translate(955.566406 0)"/>
    </g>
   </g>
   <g id="text_10">
    <!-- uncertain -&gt; LLM -->
    <g transform="translate(707.095266 258.113081) scale(0.09 -0.09)">
     <use xlink:href="#DejaVuSans-75"/>
     <use xlink:href="#DejaVuSans-6e" transform="translate(63.378906 0)"/>
     <use xlink:href="#DejaVuSans-63" transform="translate(126.757812 0)"/>
     <use xlink:href="#DejaVuSans-65" transform="translate(181.738281 0)"/>
     <use xlink:href="#DejaVuSans-72" transform="translate(243.261719 0)"/>
     <use xlink:href="#DejaVuSans-74" transform="translate(284.375 0)"/>
     <use xlink:href="#DejaVuSans-61" transform="translate(323.583984 0)"/>
     <use xlink:href="#DejaVuSans-69" transform="translate(384.863281 0)"/>
     <use xlink:href="#DejaVuSans-6e" transform="translate(412.646484 0)"/>
     <use xlink:href="#DejaVuSans-20" transform="translate(476.025391 0)"/>
     <use xlink:href="#DejaVuSans-2d" transform="translate(507.8125 0)"/>
     <use xlink:href="#DejaVuSans-3e" transform="translate(543.896484 0)"/>
     <use xlink:href="#DejaVuSans-20" transform="translate(627.685547 0)"/>
     <use xlink:href="#DejaVuSans-4c" transform="translate(659.472656 0)"/>
     <use xlink:href="#DejaVuSans-4c" transform="translate(715.185547 0)"/>
     <use xlink:href="#DejaVuSans-4d" transform="translate(770.898438 0)"/>
    </g>
   </g>
   <g id="text_11">
    <!-- Main flow: data -&gt; ML -&gt; router -->
    <g style="fill: #374151" transform="translate(770.328 211.6872) scale(0.09 -0.09)">
     <defs>
      <path id="DejaVuSans-77" d="M 269 3500 
L 844 3500 
L 1563 769 
L 2278 3500 
L 2956 3500 
L 3675 769 
L 4391 3500 
L 4966 3500 
L 4050 0 
L 3372 0 
L 2619 2869 
L 1863 0 
L 1184 0 
L 269 3500 
z
" transform="scale(0.015625)"/>
      <path id="DejaVuSans-3a" d="M 750 794 
L 1409 794 
L 1409 0 
L 750 0 
L 750 794 
z
M 750 3309 
L 1409 3309 
L 1409 2516 
L 750 2516 
L 750 3309 
z
" transform="scale(0.015625)"/>
     </defs>
     <use xlink:href="#DejaVuSans-4d"/>
     <use xlink:href="#DejaVuSans-61" transform="translate(86.279297 0)"/>
     <use xlink:href="#DejaVuSans-69" transform="translate(147.558594 0)"/>
     <use xlink:href="#DejaVuSans-6e" transform="translate(175.341797 0)"/>
     <use xlink:href="#DejaVuSans-20" transform="translate(238.720703 0)"/>
     <use xlink:href="#DejaVuSans-66" transform="translate(270.507812 0)"/>
     <use xlink:href="#DejaVuSans-6c" transform="translate(305.712891 0)"/>
     <use xlink:href="#DejaVuSans-6f" transform="translate(333.496094 0)"/>
     <use xlink:href="#DejaVuSans-77" transform="translate(394.677734 0)"/>
     <use xlink:href="#DejaVuSans-3a" transform="translate(470.964844 0)"/>
     <use xlink:href="#DejaVuSans-20" transform="translate(504.65625 0)"/>
     <use xlink:href="#DejaVuSans-64" transform="translate(536.443359 0)"/>
     <use xlink:href="#DejaVuSans-61" transform="translate(599.919922 0)"/>
     <use xlink:href="#DejaVuSans-74" transform="translate(661.199219 0)"/>
     <use xlink:href="#DejaVuSans-61" transform="translate(700.408203 0)"/>
     <use xlink:href="#DejaVuSans-20" transform="translate(761.6875 0)"/>
     <use xlink:href="#DejaVuSans-2d" transform="translate(793.474609 0)"/>
     <use xlink:href="#DejaVuSans-3e" transform="translate(829.558594 0)"/>
     <use xlink:href="#DejaVuSans-20" transform="translate(913.347656 0)"/>
     <use xlink:href="#DejaVuSans-4d" transform="translate(945.134766 0)"/>
     <use xlink:href="#DejaVuSans-4c" transform="translate(1031.414062 0)"/>
     <use xlink:href="#DejaVuSans-20" transform="translate(1087.126953 0)"/>
     <use xlink:href="#DejaVuSans-2d" transform="translate(1118.914062 0)"/>
     <use xlink:href="#DejaVuSans-3e" transform="translate(1154.998047 0)"/>
     <use xlink:href="#DejaVuSans-20" transform="translate(1238.787109 0)"/>
     <use xlink:href="#DejaVuSans-72" transform="translate(1270.574219 0)"/>
     <use xlink:href="#DejaVuSans-6f" transform="translate(1309.4375 0)"/>
     <use xlink:href="#DejaVuSans-75" transform="translate(1370.619141 0)"/>
     <use xlink:href="#DejaVuSans-74" transform="translate(1433.998047 0)"/>
     <use xlink:href="#DejaVuSans-65" transform="translate(1473.207031 0)"/>
     <use xlink:href="#DejaVuSans-72" transform="translate(1534.730469 0)"/>
    </g>
   </g>
   <g id="text_12">
    <!-- Escalation flow: router -&gt; LLM -->
    <g style="fill: #374151" transform="translate(533.592 211.6872) scale(0.09 -0.09)">
     <use xlink:href="#DejaVuSans-45"/>
     <use xlink:href="#DejaVuSans-73" transform="translate(63.183594 0)"/>
     <use xlink:href="#DejaVuSans-63" transform="translate(115.283203 0)"/>
     <use xlink:href="#DejaVuSans-61" transform="translate(170.263672 0)"/>
     <use xlink:href="#DejaVuSans-6c" transform="translate(231.542969 0)"/>
     <use xlink:href="#DejaVuSans-61" transform="translate(259.326172 0)"/>
     <use xlink:href="#DejaVuSans-74" transform="translate(320.605469 0)"/>
     <use xlink:href="#DejaVuSans-69" transform="translate(359.814453 0)"/>
     <use xlink:href="#DejaVuSans-6f" transform="translate(387.597656 0)"/>
     <use xlink:href="#DejaVuSans-6e" transform="translate(448.779297 0)"/>
     <use xlink:href="#DejaVuSans-20" transform="translate(512.158203 0)"/>
     <use xlink:href="#DejaVuSans-66" transform="translate(543.945312 0)"/>
     <use xlink:href="#DejaVuSans-6c" transform="translate(579.150391 0)"/>
     <use xlink:href="#DejaVuSans-6f" transform="translate(606.933594 0)"/>
     <use xlink:href="#DejaVuSans-77" transform="translate(668.115234 0)"/>
     <use xlink:href="#DejaVuSans-3a" transform="translate(744.402344 0)"/>
     <use xlink:href="#DejaVuSans-20" transform="translate(778.09375 0)"/>
     <use xlink:href="#DejaVuSans-72" transform="translate(809.880859 0)"/>
     <use xlink:href="#DejaVuSans-6f" transform="translate(848.744141 0)"/>
     <use xlink:href="#DejaVuSans-75" transform="translate(909.925781 0)"/>
     <use xlink:href="#DejaVuSans-74" transform="translate(973.304688 0)"/>
     <use xlink:href="#DejaVuSans-65" transform="translate(1012.513672 0)"/>
     <use xlink:href="#DejaVuSans-72" transform="translate(1074.037109 0)"/>
     <use xlink:href="#DejaVuSans-20" transform="translate(1115.150391 0)"/>
     <use xlink:href="#DejaVuSans-2d" transform="translate(1146.9375 0)"/>
     <use xlink:href="#DejaVuSans-3e" transform="translate(1183.021484 0)"/>
     <use xlink:href="#DejaVuSans-20" transform="translate(1266.810547 0)"/>
     <use xlink:href="#DejaVuSans-4c" transform="translate(1298.597656 0)"/>
     <use xlink:href="#DejaVuSans-4c" transform="translate(1354.310547 0)"/>
     <use xlink:href="#DejaVuSans-4d" transform="translate(1410.023438 0)"/>
    </g>
   </g>
  </g>
  <g id="text_13">
   <!-- LLM Security Gatekeeper: End-to-End Pipeline -->
   <g transform="translate(320.30125 21.5175) scale(0.16 -0.16)">
    <defs>
     <path id="DejaVuSans-53" d="M 3425 4513 
L 3425 3897 
Q 3066 4069 2747 4153 
Q 2428 4238 2131 4238 
Q 1616 4238 1336 4038 
Q 1056 3838 1056 3469 
Q 1056 3159 1242 3001 
Q 1428 2844 1947 2747 
L 2328 2669 
Q 3034 2534 3370 2195 
Q 3706 1856 3706 1288 
Q 3706 609 3251 259 
Q 2797 -91 1919 -91 
Q 1588 -91 1214 -16 
Q 841 59 441 206 
L 441 856 
Q 825 641 1194 531 
Q 1563 422 1919 422 
Q 2459 422 2753 634 
Q 3047 847 3047 1241 
Q 3047 1584 2836 1778 
Q 2625 1972 2144 2069 
L 1759 2144 
Q 1053 2284 737 2584 
Q 422 2884 422 3419 
Q 422 4038 858 4394 
Q 1294 4750 2059 4750 
Q 2388 4750 2728 4690 
Q 3069 4631 3425 4513 
z
" transform="scale(0.015625)"/>
    </defs>
    <use xlink:href="#DejaVuSans-4c"/>
    <use xlink:href="#DejaVuSans-4c" transform="translate(55.712891 0)"/>
    <use xlink:href="#DejaVuSans-4d" transform="translate(111.425781 0)"/>
    <use xlink:href="#DejaVuSans-20" transform="translate(197.705078 0)"/>
    <use xlink:href="#DejaVuSans-53" transform="translate(229.492188 0)"/>
    <use xlink:href="#DejaVuSans-65" transform="translate(292.96875 0)"/>
    <use xlink:href="#DejaVuSans-63" transform="translate(354.492188 0)"/>
    <use xlink:href="#DejaVuSans-75" transform="translate(409.472656 0)"/>
    <use xlink:href="#DejaVuSans-72" transform="translate(472.851562 0)"/>
    <use xlink:href="#DejaVuSans-69" transform="translate(513.964844 0)"/>
    <use xlink:href="#DejaVuSans-74" transform="translate(541.748047 0)"/>
    <use xlink:href="#DejaVuSans-79" transform="translate(580.957031 0)"/>
    <use xlink:href="#DejaVuSans-20" transform="translate(640.136719 0)"/>
    <use xlink:href="#DejaVuSans-47" transform="translate(671.923828 0)"/>
    <use xlink:href="#DejaVuSans-61" transform="translate(749.414062 0)"/>
    <use xlink:href="#DejaVuSans-74" transform="translate(810.693359 0)"/>
    <use xlink:href="#DejaVuSans-65" transform="translate(849.902344 0)"/>
    <use xlink:href="#DejaVuSans-6b" transform="translate(911.425781 0)"/>
    <use xlink:href="#DejaVuSans-65" transform="translate(965.710938 0)"/>
    <use xlink:href="#DejaVuSans-65" transform="translate(1027.234375 0)"/>
    <use xlink:href="#DejaVuSans-70" transform="translate(1088.757812 0)"/>
    <use xlink:href="#DejaVuSans-65" transform="translate(1152.234375 0)"/>
    <use xlink:href="#DejaVuSans-72" transform="translate(1213.757812 0)"/>
    <use xlink:href="#DejaVuSans-3a" transform="translate(1253.121094 0)"/>
    <use xlink:href="#DejaVuSans-20" transform="translate(1286.8125 0)"/>
    <use xlink:href="#DejaVuSans-45" transform="translate(1318.599609 0)"/>
    <use xlink:href="#DejaVuSans-6e" transform="translate(1381.783203 0)"/>
    <use xlink:href="#DejaVuSans-64" transform="translate(1445.162109 0)"/>
    <use xlink:href="#DejaVuSans-2d" transform="translate(1508.638672 0)"/>
    <use xlink:href="#DejaVuSans-74" transform="translate(1544.722656 0)"/>
    <use xlink:href="#DejaVuSans-6f" transform="translate(1583.931641 0)"/>
    <use xlink:href="#DejaVuSans-2d" transform="translate(1646.988281 0)"/>
    <use xlink:href="#DejaVuSans-45" transform="translate(1683.072266 0)"/>
    <use xlink:href="#DejaVuSans-6e" transform="translate(1746.255859 0)"/>
    <use xlink:href="#DejaVuSans-64" transform="translate(1809.634766 0)"/>
    <use xlink:href="#DejaVuSans-20" transform="translate(1873.111328 0)"/>
    <use xlink:href="#DejaVuSans-50" transform="translate(1904.898438 0)"/>
    <use xlink:href="#DejaVuSans-69" transform="translate(1962.951172 0)"/>
    <use xlink:href="#DejaVuSans-70" transform="translate(1990.734375 0)"/>
    <use xlink:href="#DejaVuSans-65" transform="translate(2054.210938 0)"/>
    <use xlink:href="#DejaVuSans-6c" transform="translate(2115.734375 0)"/>
    <use xlink:href="#DejaVuSans-69" transform="translate(2143.517578 0)"/>
    <use xlink:href="#DejaVuSans-6e" transform="translate(2171.300781 0)"/>
    <use xlink:href="#DejaVuSans-65" transform="translate(2234.679688 0)"/>
   </g>
  </g>
 </g>
 <defs>
  <clipPath id="p0ee8718135">
   <rect x="10.8" y="54.72" width="986.4" height="402.48"/>
  </clipPath>
 </defs>
</svg>
